<svg xmlns="http://www.w3.org/2000/svg" width="10.711" height="18.93" viewBox="0 0 10.711 18.93">
  <defs>
    <style>
      .cls-1 {
        fill: #fff;
      }
    </style>
  </defs>
  <path id="Icon_metro-money" data-name="Icon metro-money" class="cls-1" d="M16.456,14.735c-2.387-.62-3.155-1.257-3.155-2.256,0-1.146,1.057-1.951,2.839-1.951,1.872,0,2.566.894,2.629,2.208h2.324A4.187,4.187,0,0,0,17.718,8.73v-2.3H14.563V8.7c-2.04.447-3.681,1.762-3.681,3.8,0,2.429,2.014,3.639,4.943,4.343,2.634.631,3.155,1.551,3.155,2.54,0,.72-.51,1.877-2.839,1.877-2.166,0-3.024-.973-3.134-2.208H10.688c.131,2.3,1.851,3.591,3.875,4.028v2.282h3.155V23.1c2.045-.394,3.681-1.577,3.681-3.739,0-2.976-2.556-4-4.943-4.622Z" transform="translate(-10.688 -6.427)"/>
</svg>
